<?xml version="1.0"?>
<svg xmlns="http://www.w3.org/2000/svg" height="512px" viewBox="0 0 511.99987 511" width="512px"><path d="m413.824219 498.308594-39.109375-19.871094c-22.554688-11.457031-47.84375-16.984375-73.113282-15.980469l-105.417968 4.183594c-6.316406.253906-12.683594.914063-18.914063 1.972656l-171.023437 28.988281c-3.84375.648438-6.546875 4.136719-6.2187502 8.023438.3281252 3.882812 3.5742182 6.867188 7.4726562 6.867188h120.4375c4.140625 0 7.5-3.355469 7.5-7.5 0-4.140626-3.359375-7.5-7.5-7.5h-31.3125l83.152344-14.09375c5.601562-.949219 11.320312-1.542969 17-1.769532l105.417968-4.183594c22.722657-.902343 45.449219 4.066407 65.726563 14.367188l11.183594 5.679688h-219.1875c-4.140625 0-7.5 3.359374-7.5 7.5 0 4.144531 3.359375 7.5 7.5 7.5h250.507812c3.46875 0 6.488281-2.378907 7.296875-5.75.804688-3.375-.804687-6.863282-3.898437-8.433594zm0 0" fill="#F8F1E5"/><path d="m511.4375 420.679688c-1.574219-3.832032-5.953125-5.664063-9.785156-4.09375l-15.6875 6.433593c-11.082032 4.546875-22.765625 7.132813-34.730469 7.691407l-106.40625 4.960937c1.128906-2.863281 1.6875-6.003906 1.53125-9.269531-.570313-12.4375-11.117187-22.027344-23.519531-21.4375l-6.199219.289062 15.265625-108.835937c1.246094-8.898438-2.910156-17.667969-10.585938-22.347657l-77.929687-47.4375.355469-.984374 1.828125-1.800782c8.933593 5.867188 21.003906 4.65625 28.574219-3.230468 7.5-7.808594 8.089843-19.332032 2.757812-27.671876l4.484375-4.429687c2.945313-2.910156 2.976563-7.65625.066406-10.605469-2.910156-2.945312-7.660156-2.976562-10.605469-.066406l-4.320312 4.265625-5.226562-5.019531c6.210937-17.183594 14.832031-41.019532 28.957031-80.074219 3.394531-9.375 2.9375-19.53125-1.277344-28.589844-.804687-1.730469-1.726563-3.378906-2.761719-4.9375 8.675782-3.210937 15.9375-10.070312 19.320313-19.425781 6.09375-16.851562-2.660157-35.519531-19.511719-41.613281-16.890625-6.109375-35.507812 2.617187-41.613281 19.511719-3.085938 8.523437-2.507813 17.769531 1.640625 25.875-6.769532 1.65625-13.078125 5.203124-18.105469 10.441406-.511719.4375-1.003906.902344-1.480469 1.394531l-26.011718 26.800781c-2.886719 2.972656-2.8125 7.722656.15625 10.605469 2.972656 2.886719 7.722656 2.8125 10.605468-.15625l26.011719-26.804687c2.882813-2.96875 7.636719-3.039063 10.605469-.160157 2.96875 2.878907 3.039062 7.636719.160156 10.605469l-47.269531 48.710938c-2.898438 2.980468-2.8125 7.753906.1875 10.632812.097656.09375 66.136719 63.503906 62.195312 59.722656 2.992188 2.871094 3.085938 7.613282.214844 10.601563-2.863281 2.984375-7.621094 3.082031-10.601563.21875-7.570312-7.269531-66.296874-63.660157-73.074218-70.167969-3-2.878906-3.085938-7.648438-.191406-10.632812l9.480468-9.769532c2.886719-2.972656 2.8125-7.722656-.15625-10.605468-2.972656-2.882813-7.722656-2.8125-10.605468.160156l-9.480469 9.769531c-8.691407 8.953125-8.441407 23.253906.5625 31.898437l16.097656 15.457032-12.078125 33.394531c-1.613281 4.480469-.097656 9.351563 3.425781 12.203125l-1.453125 6.515625c-2.082031 9.402344 2.039063 19.085937 10.203125 24.0625l12.039063 7.480469-103.542969 102.152344c-2.949219 2.910156-2.980469 7.65625-.074219 10.605468 1.46875 1.488282 3.40625 2.230469 5.339844 2.230469 1.902344 0 3.808594-.71875 5.269531-2.160156l106.109375-104.695313 74.695313 46.421875-5.5 39.210938c-.574219 4.101562 2.285156 7.890625 6.386719 8.46875.351562.050781.703124.074219 1.050781.074219 3.679687 0 6.890625-2.710938 7.417969-6.460938l6.175781-44.042969c.414062-2.941406-.945313-5.847656-3.464844-7.414062l-75.777344-47.089844 10.402344-10.265625 81.53125 49.628906c2.5625 1.5625 3.953125 4.488282 3.539063 7.457032l-16.523438 117.789062c-.652344 4.664062 3.117188 8.761719 7.777344 8.53125l15.234375-.710938c4.078125-.199218 7.640625 2.953126 7.835937 7.152344.195313 4.148438-3.023437 7.640625-7.136718 7.835938l-33.296876 1.550781c-4.664062.238281-8.433593-3.878906-7.777343-8.539063l6.996093-49.882812c.574219-4.101562-2.285156-7.894531-6.386718-8.46875-4.101563-.578125-7.894532 2.285156-8.46875 6.386719l-6.996094 49.882812c-.648438 4.601563.144531 9.214844 2.199219 13.273438l-111.828125 5.210937c-4.140625.195313-7.335938 3.703125-7.144532 7.839844.1875 4.019531 3.503907 7.152344 7.484376 7.152344.121093 0 .238281 0 .355468-.007813l292.550782-13.636719c13.6875-.640624 27.054687-3.597656 39.726562-8.796874l15.6875-6.433594c3.832031-1.574219 5.664062-5.957032 4.09375-9.785156zm-252.914062-393.625c3.285156-9.09375 13.308593-13.796876 22.40625-10.503907 9.074218 3.277344 13.785156 13.332031 10.503906 22.40625s-13.335938 13.789063-22.40625 10.503907c-9.09375-3.289063-13.796875-13.308594-10.503906-22.40625zm.242187 63.949218c7.570313-7.804687 8.339844-19.730468 2.425781-28.375.488282.140625.972656.296875 1.457032.472656 5.671874 2.050782 10.191406 6.183594 12.734374 11.648438 2.53125 5.441406 2.808594 11.535156.773438 17.15625-12.488281 34.523438-20.671875 57.15625-26.695312 73.8125l-32.71875-31.417969zm-26.046875 121.023438-1.621094 4.488281-42.320312-15.304687 8.421875-23.289063zm-39.398438 17.925781c-2.742187-1.671875-4.117187-4.902344-3.421874-8.035156l.898437-4.03125 28.871094 10.441406-11.191407 11.039063zm0 0" fill="#F8F1E5"/></svg>
