<?xml version="1.0" encoding="iso-8859-1"?>
<!-- Generator: Adobe Illustrator 19.0.0, SVG Export Plug-In . SVG Version: 6.00 Build 0)  -->
<svg xmlns="http://www.w3.org/2000/svg" xmlns:xlink="http://www.w3.org/1999/xlink" version="1.1" id="Capa_1" x="0px" y="0px" viewBox="0 0 480 480" style="enable-background:new 0 0 480 480;" xml:space="preserve" width="512px" height="512px">
<g>
	<g>
		<path d="M480,328v-16h-88c-2.122,0-4.156,0.844-5.656,2.344L332.688,368H320V184h7.2c13.697,0.02,24.816-11.068,24.835-24.764    c0.018-12.767-9.659-23.461-22.363-24.716L320,133.6V120h-16v12l-37.92-3.792l-70.832-31.48c-1.02-0.468-2.126-0.716-3.248-0.728    h-30.112c-9.097-0.028-17.42,5.115-21.464,13.264l-3.584,7.2c-0.367,0.744-0.618,1.54-0.744,2.36l-16,104    c-0.199,1.255-0.089,2.54,0.32,3.744l23.368,70.12l-11.68,70.088c-2.592,15.563,7.923,30.281,23.486,32.874    c1.119,0.186,2.235,0.297,3.343,0.35H120c-2.122,0-4.156,0.844-5.656,2.344L84.688,432H0v16h88c2.122,0,4.156-0.844,5.656-2.344    L123.312,416H224c2.122,0,4.156-0.844,5.656-2.344L259.312,384H480v-16H355.312l40-40H480z M147.88,369.36l12-72.048    c0.22-1.285,0.115-2.605-0.304-3.84l-23.384-70.168l15.52-100.848l3.016-6.032c1.345-2.722,4.124-4.439,7.16-4.424h28.416    l70.448,31.312c0.775,0.356,1.601,0.588,2.448,0.688l64.88,6.488c4.815,0.663,8.181,5.103,7.518,9.918    c-0.583,4.235-4.125,7.439-8.398,7.594h-61.904l-46.768-15.584c-4.188-1.393-8.713,0.87-10.112,5.056l-16,48    c-0.274,0.815-0.414,1.668-0.416,2.528v94.928l-19.584,71.808c-1.837,6.698-8.756,10.639-15.454,8.802    C150.751,381.835,146.83,375.715,147.88,369.36z M208,237.6l56.384,31.32l5.824,69.6c0.566,6.705-4.412,12.599-11.117,13.165    c-0.331,0.028-0.663,0.042-0.995,0.043c-6.215,0.008-11.438-4.669-12.112-10.848l-6-53.792c-0.3-2.698-1.948-5.059-4.376-6.272    L208,267.056V237.6z M304,368h-48c-2.122,0-4.156,0.844-5.656,2.344L220.688,400h-59.003c12.12-0.588,22.857-8.882,26.163-21.024    l19.872-72.8c0.192-0.709,0.286-1.441,0.28-2.176v-19.056l16.528,8.264l5.52,49.472c1.571,14.276,13.638,25.081,28,25.072h0.072    c15.566-0.047,28.146-12.704,28.098-28.27c-0.002-0.756-0.035-1.513-0.098-2.266l-6.12-73.88    c-0.222-2.659-1.755-5.032-4.088-6.328L208,219.296v-10l13.064-39.2l40.408,13.464c0.814,0.282,1.667,0.43,2.528,0.44h40V368z" fill="#F8F1E5"/>
	</g>
</g>
<g>
	<g>
		<path d="M280,432c-2.122,0-4.156,0.844-5.656,2.344L244.688,464H0v16h248c2.122,0,4.156-0.844,5.656-2.344L283.312,448H480v-16    H280z" fill="#F8F1E5"/>
	</g>
</g>
<g>
	<g>
		<path d="M216,0h-36c-24.234-0.08-43.945,19.501-44.024,43.735c-0.016,4.945,0.803,9.857,2.424,14.529l-0.056,0.08l0.168,0.168    c8.093,22.913,33.228,34.928,56.142,26.835C212.192,79.153,223.94,62.6,224,44V8C224,3.582,220.418,0,216,0z M208,44    c0,15.464-12.536,28-28,28c-8.459-0.029-16.445-3.903-21.704-10.528c13.939-12.079,31.331-19.456,49.704-21.08V44z M208,24.392    c-20.311,1.497-39.729,8.959-55.816,21.448c0-0.616-0.184-1.208-0.184-1.84c0-15.464,12.536-28,28-28h28V24.392z" fill="#F8F1E5"/>
	</g>
</g>
<g>
</g>
<g>
</g>
<g>
</g>
<g>
</g>
<g>
</g>
<g>
</g>
<g>
</g>
<g>
</g>
<g>
</g>
<g>
</g>
<g>
</g>
<g>
</g>
<g>
</g>
<g>
</g>
<g>
</g>
</svg>
